HIERARCHY
ROOT Hips
{
    OFFSET 0.000000 0.000000 0.000000
    CHANNELS 6 Xposition Yposition Zposition Zrotation Xrotation Yrotation
        JOINT Chest
        {
            OFFSET -0.000000 29.765863 -0.000000
            CHANNELS 3 Zrotation Xrotation Yrotation
            JOINT Neck
            {
                OFFSET -0.000000 22.048780 0.000000
                CHANNELS 3 Zrotation Xrotation Yrotation
                JOINT Head
                {
                    OFFSET -0.000000 10.266670 0.000000
                    CHANNELS 3 Zrotation Xrotation Yrotation
                    End Site
                    {
                        OFFSET -0.000000 15.866677 0.000000
                    }
                }
            }
            JOINT LeftCollar
            {
                OFFSET -0.000000 22.048780 0.000000
                CHANNELS 3 Zrotation Xrotation Yrotation
                JOINT LeftShoulder
                {
                    OFFSET 18.666672 -0.000000 0.000000
                    CHANNELS 3 Zrotation Xrotation Yrotation
                    JOINT LeftElbow
                    {
                        OFFSET 23.656216 0.000000 0.000000
                        CHANNELS 3 Zrotation Xrotation Yrotation
                        JOINT LeftWrist
                        {
                            OFFSET 24.590921 0.000000 0.000000
                            CHANNELS 3 Zrotation Xrotation Yrotation
                            End Site
                            {
                                OFFSET 0.000000 -14.000008 0.000000
                            }
                        }
                    }
                }
            }
            JOINT RightCollar
            {
                OFFSET -0.000000 22.048780 0.000000
                CHANNELS 3 Zrotation Xrotation Yrotation
                JOINT RightShoulder
                {
                    OFFSET -18.666672 0.000000 0.000000
                    CHANNELS 3 Zrotation Xrotation Yrotation
                    JOINT RightElbow
                    {
                        OFFSET -23.656216 0.000000 0.000000
                        CHANNELS 3 Zrotation Xrotation Yrotation
                        JOINT RightWrist
                        {
                            OFFSET -24.590921 0.000000 0.000000
                            CHANNELS 3 Zrotation Xrotation Yrotation
                            End Site
                            {
                                OFFSET -0.000000 -14.000008 0.000000
                            }
                        }
                    }
                }
            }
        }
    JOINT LeftHip
    {
        OFFSET 11.200002 0.000000 0.000000
        CHANNELS 3 Zrotation Xrotation Yrotation
        JOINT LeftKnee
        {
            OFFSET -0.000000 -37.692356 0.000000
            CHANNELS 3 Zrotation Xrotation Yrotation
            JOINT LeftAnkle
            {
                OFFSET -0.000000 -39.524944 0.000000
                CHANNELS 3 Zrotation Xrotation Yrotation
                End Site
                {
                    OFFSET -0.000000 -4.666668 15.866677
                }
            }
        }
    }
    JOINT RightHip
    {
        OFFSET -11.200002 0.000000 0.000000
        CHANNELS 3 Zrotation Xrotation Yrotation
        JOINT RightKnee
        {
            OFFSET -0.000000 -37.692356 0.000000
            CHANNELS 3 Zrotation Xrotation Yrotation
            JOINT RightAnkle
            {
                OFFSET -0.000000 -39.524944 0.000000
                CHANNELS 3 Zrotation Xrotation Yrotation
                End Site
                {
                    OFFSET -0.000000 -4.666668 15.866677
                }
            }
        }
    }
}
MOTION
Frames:    12
Frame Time:    0.010000
-1.550821    83.250793    -98.111771    7.193611    -0.851114    -48.020786    -5.709710    1.657720    -4.738152    7.682282    19.775764    10.157696    -11.956739    -27.673645    10.381704    -14.348980    -0.178403    1.689348    -56.773228    36.141514    -5.908883    1.113950    -0.863379    -77.723816    99.489388    -4.838104    29.413429    16.076925    -2.233877    -15.526090    34.165764    55.371635    25.131821    -5.205419    -3.445213    66.548126    -76.256409    -17.055822    13.645129    -9.601804    -5.489870    -4.446545    1.639837    16.691372    5.910468    18.891436    -15.679057    13.187648    -8.563984    -29.401197    2.515634    1.878396    25.693720    3.288752    8.259831    -1.322791    -2.713065    
-1.568789    83.258400    -98.154030    7.364586    -0.719288    -47.912415    -5.601205    1.404104    -4.887006    6.031916    19.859337    11.540983    -7.819421    -29.477520    10.670341    -14.493890    -0.352534    4.052518    -56.604980    35.967026    -6.493053    1.227624    -1.050696    -77.776482    99.297668    -5.007941    29.394905    15.800066    -2.007048    -13.368336    34.217438    55.813236    24.956543    -4.784369    -2.951815    66.437614    -78.397118    -17.486357    12.435838    -9.577686    -5.725120    -4.663503    1.577764    16.748468    6.017638    18.443079    -15.836920    13.303544    -8.595483    -29.564657    2.384748    1.834821    25.627220    3.231077    8.477834    -1.315499    -2.710272    
-1.589829    83.266357    -98.167061    7.453340    -0.680455    -47.770885    -5.658550    1.333340    -5.037454    6.065697    19.956177    11.521473    -7.592323    -29.713373    10.571366    -14.463618    -0.436838    4.036690    -56.696892    36.048542    -6.339393    1.246083    -0.973864    -77.842552    99.641968    -4.581889    29.553513    15.803976    -1.934654    -13.453280    33.702698    56.154133    25.600641    -5.010316    -3.318258    66.177399    -78.299942    -17.574224    12.307995    -9.608558    -5.832003    -4.818128    1.581378    16.787678    6.008013    18.386637    -15.866289    13.313350    -8.696583    -29.576107    2.199821    2.145190    25.517574    2.584354    7.817258    -1.335432    -2.731607    
-1.624283    83.267883    -98.177811    7.497471    -0.657734    -47.656044    -5.675322    1.322677    -5.171216    6.067129    19.910889    11.525941    -7.560156    -29.691664    10.585670    -14.463910    -0.481202    3.989563    -56.744873    35.949959    -6.213014    1.169300    -0.915046    -77.677361    98.815178    -5.340360    29.312401    15.767807    -1.885312    -13.486520    33.561649    56.244534    25.809607    -5.194140    -3.478884    66.075676    -78.045647    -17.639200    12.436647    -9.597751    -5.879196    -4.989184    1.535751    16.817896    6.093259    18.356646    -15.887105    13.296496    -8.751473    -29.526295    2.119985    1.847191    25.450571    3.135237    8.196201    -1.286081    -2.595261    
-1.639555    83.279022    -98.203239    7.629313    -0.573973    -47.519192    -5.731966    1.210876    -5.319068    6.089083    19.887568    11.503964    -7.536029    -29.723646    10.567576    -14.438246    -0.507460    3.972027    -56.743416    35.936234    -6.188750    1.050946    -0.777497    -77.655525    98.889999    -5.441542    29.209986    15.804292    -1.853371    -13.484483    33.690632    56.070244    25.595144    -4.894960    -3.081645    66.068565    -79.981064    -18.061853    11.312124    -9.620869    -6.058544    -5.177355    1.527448    16.868113    6.127365    18.373875    -15.886002    13.290668    -8.829037    -29.611834    1.952398    2.136318    25.349680    2.563544    7.783315    -1.306164    -2.773959    
-1.639555    83.279022    -98.203239    7.629320    -0.573972    -47.519173    -5.728477    1.207776    -5.319243    6.035946    19.891390    11.550622    -7.509243    -29.725569    10.619081    -14.441113    -0.542009    4.048496    -56.754917    35.946091    -6.176508    1.019393    -0.793605    -77.659622    98.827995    -5.453682    29.133221    15.848111    -1.892582    -13.353013    33.964802    55.703438    25.199133    -4.634767    -2.873013    66.207458    -79.911125    -18.014748    11.592697    -9.620887    -6.058546    -5.177344    1.527488    16.868093    6.127360    18.373831    -15.885984    13.290644    -8.829025    -29.611843    1.952399    2.136291    25.349691    2.563589    7.783298    -1.306183    -2.774016    
-1.680961    83.294052    -98.223618    7.839918    -0.460094    -47.152103    -5.855030    1.046483    -5.707285    6.210323    19.851650    11.441113    -7.575118    -29.705013    10.508983    -14.402150    -0.494974    3.864203    -56.765144    35.917732    -6.120748    0.854470    -0.578816    -77.731300    99.183090    -5.178897    28.992399    15.905101    -1.877426    -13.520115    33.971416    55.526356    25.111364    -4.666015    -3.042390    66.352936    -78.203011    -17.585493    12.817470    -9.675368    -6.315744    -5.615515    1.477603    16.977217    6.082904    18.387722    -15.874780    13.369529    -9.077014    -29.638744    1.617313    2.177548    25.169874    2.355364    7.616047    -1.243118    -2.715258    
-1.734144    83.291649    -98.223274    7.860604    -0.465742    -47.009930    -5.851305    1.120994    -5.859087    5.999280    19.732718    11.499262    -7.323378    -29.676811    10.598807    -14.412499    -0.530027    3.970476    -56.784615    35.890270    -6.157079    0.672818    -0.411561    -78.126556    101.167641    -2.887702    28.445103    15.825020    -1.893465    -13.454522    33.664322    55.674374    25.426697    -4.768353    -3.145213    66.330734    -78.280273    -17.653473    12.601510    -9.661362    -6.321909    -5.643772    1.466130    17.018650    5.964808    18.357946    -15.909999    13.394492    -9.139993    -29.510715    1.505212    2.172863    25.019718    2.295991    7.837663    -1.225058    -2.686138    
-1.765759    83.299568    -98.240990    7.946637    -0.414480    -46.858429    -5.902988    1.091150    -6.014195    6.031643    19.701542    11.502646    -7.347500    -29.749542    10.599175    -14.379048    -0.507873    3.977070    -56.772396    35.848446    -6.209571    0.503388    -0.279267    -78.052368    101.120270    -3.080891    28.267294    15.831343    -1.866212    -13.441160    33.815624    55.450977    25.207018    -4.593555    -2.949447    66.463829    -78.459389    -17.570885    12.568002    -9.659778    -6.440403    -5.783495    1.432576    17.085220    5.933585    18.417431    -15.926313    13.428079    -9.219083    -29.509834    1.377185    1.862292    24.981991    2.824718    8.144569    -1.204732    -2.516817    
-1.807826    83.302460    -98.245239    7.947509    -0.413395    -46.743786    -5.902755    1.096304    -6.110826    6.050579    19.689945    11.500859    -7.329435    -29.756424    10.602538    -14.416097    -0.490635    4.029935    -56.711090    35.928894    -6.260487    0.500271    -0.428216    -77.752319    99.223228    -5.332061    28.572863    15.818521    -1.891913    -13.453023    33.800655    55.447662    25.161825    -4.511682    -2.910340    66.463478    -78.936356    -17.626743    12.343154    -9.631977    -6.439197    -5.793042    1.425146    17.143312    5.572893    18.390774    -15.913764    13.688993    -9.250682    -29.403057    1.309775    2.187199    24.820314    2.214552    7.746249    -1.193242    -2.707238    
-1.840543    83.310501    -98.263680    8.035764    -0.352268    -46.589283    -5.935669    0.894694    -6.374905    6.005513    19.862236    11.504805    -7.247432    -29.829948    10.622573    -14.456743    -0.513325    4.015463    -56.794743    35.914158    -6.028833    0.514189    -0.399050    -77.775459    98.973328    -5.456136    28.534262    15.859311    -1.866446    -13.491919    33.690830    55.552361    25.154404    -4.384531    -2.810791    66.417137    -79.208504    -17.685240    12.249838    -9.618779    -6.562355    -5.918676    1.387793    17.193636    5.623110    18.409840    -15.948494    13.603008    -9.319940    -29.405272    1.182580    2.188300    24.717865    2.080356    7.772098    -1.154750    -2.640993    
-1.884491    83.312263    -98.268661    8.022255    -0.361895    -46.486725    -5.944726    0.930906    -6.487100    5.970726    19.956141    11.536931    -7.236261    -30.025827    10.648482    -14.470310    -0.542334    4.095591    -56.778053    35.987473    -6.037280    0.547258    -0.419522    -77.744286    98.826935    -5.549932    28.650545    15.839136    -1.881960    -13.437738    33.634071    55.594608    25.172192    -4.331131    -2.809738    66.392197    -79.551712    -17.715916    12.097646    -9.580008    -6.537752    -5.955040    1.364775    17.224224    5.530035    18.383490    -15.960208    13.638186    -9.329215    -29.290838    1.100949    2.162156    24.611200    2.025678    7.766863    -1.114574    -2.585930    
